<svg width="134" height="134" viewBox="0 0 134 134" fill="none" xmlns="http://www.w3.org/2000/svg">
<circle cx="67" cy="67" r="67" fill="white"/>
<path fill-rule="evenodd" clip-rule="evenodd" d="M75.4439 57.7066V51.7398C75.4439 47.234 71.7573 43.5474 67.2515 43.5474C62.7456 43.5474 59.059 47.2339 59.059 51.7398V57.7066H52.5052V51.7399C52.5052 43.6295 59.141 36.9937 67.2515 36.9937C75.3619 36.9937 81.9977 43.6295 81.9977 51.7399V57.7066H75.4439ZM90.1103 65.9119V91.0614C90.1103 93.8787 87.8053 96.1838 84.9879 96.1838H49.515C46.6977 96.1838 44.3926 93.8787 44.3926 91.0614V65.9118C44.3926 63.0944 46.6977 60.7893 49.515 60.7893H84.9879C87.8053 60.7893 90.1103 63.0945 90.1103 65.9119ZM71.5593 74.555C71.5593 72.1759 69.6307 70.2472 67.2515 70.2472C64.8723 70.2472 62.9436 72.1759 62.9436 74.555C62.9436 76.0188 63.674 77.3119 64.7899 78.0904V84.2648C64.7899 85.6188 65.8975 86.7264 67.2515 86.7264C68.6054 86.7264 69.713 85.6186 69.713 84.2648V78.0903C70.829 77.3118 71.5593 76.0187 71.5593 74.555Z" fill="url(#paint0_linear_281_2472)"/>
<defs>
<linearGradient id="paint0_linear_281_2472" x1="67.2515" y1="96.1837" x2="67.2515" y2="36.9935" gradientUnits="userSpaceOnUse">
<stop stop-color="#056ABE"/>
<stop offset="1" stop-color="#004B89"/>
</linearGradient>
</defs>
</svg>
